<svg xmlns="http://www.w3.org/2000/svg" width="44" height="78" viewBox="0 0 44 78">
  <mask id="a" fill="#fff">
    <path fill-rule="evenodd" d="m0 .71523529h41.8472909v50.82962761h-41.8472909z"/>
  </mask>
  <g fill="none" fill-rule="evenodd" transform="matrix(-1 0 0 1 43 1)">
    <path fill="#eae9f0" d="m5.41447941.61912941c-1.20070588 1.54288235-1.96411765 3.37482353-2.24329412 5.27594118-.28288235 1.90111765-.16058823 3.84670588.21988236 5.73300001.37305882 1.8912353 1.0067647 3.7293529 1.77758823 5.5044706.38541177.8894117.819 1.7590588 1.29211765 2.6064706.45952941.8560588.97711765 1.6812353 1.51447059 2.4965294-.63-.747353-1.19205883-1.5502941-1.72570588-2.3705294-.52005883-.8301177-.99688236-1.6898824-1.43047059-2.5694118-.86594118-1.764-1.52682353-3.6342353-1.91841177-5.5699412-.37923529-1.93199998-.49164706-3.94799998-.10747059-5.89729409.19147059-.97094118.49535295-1.92088236.93388236-2.80658824.44841176-.87829412 1.008-1.69976471 1.68741176-2.40264706" transform="rotate(-12 267.474 -101.194)"/>
    <path fill="#efc45e" d="m29.3748 54.2879647c-.0543529-1.911.168-4.0357059.5126471-4.1481176.3458823-.1124118 1.7763529 1.4737058 2.8584705 3.0499411 1.146353 1.6738236-3.3130588 3.1265294-3.3711176 1.0981765"/>
    <path fill="#efc45e" d="m40.3827529 15.0083294c3.540353 10.869353.8375295 32.4931765-10.0318235 36.0322941-10.8693529 3.540353-25.78799999-12.3442941-29.32711764-23.213647-3.54158823-10.8681177 2.40017648-22.54905885 13.26952944-26.08941179 10.8693529-3.53911765 22.5502941 2.40141176 26.0894117 13.27076469" mask="url(#a)" transform="translate(0 .52)"/>
    <path fill="#e7b350" d="m39.9013588 19.5290118c2.6917059 9.4598823-.6015882 28.0325294-9.6908823 30.6192353-9.0892941 2.5854705 1.7121176-6.7039412-.9795883-16.1638236-2.6917058-9.4598823-3.2377058-15.7635882.5361177-20.7492353 5.783647-7.64152938 7.442647-3.1660588 10.1343529 6.2938236"/>
    <g fill="#f5f7f8">
      <path d="M11.8685136 12.3507601c-.5190508 0-1.0284407-.2735757-1.3367095-.7778321-.4891899-.8007095-.288947-1.88071413.4487901-2.41261402.2994862-.21542899.6095114-.42323218.9212932-.61673698.7675979-.47851926 1.7477344-.19064512 2.1877419.64342729.4408858.83311921.1756517 1.89596581-.5928244 2.37448501-.251182.156329-.5014857.3250499-.7430067.498537-.2731384.1963645-.5805289.2907338-.8852846.2907338M7.08171132 24.4661447c-.5702375 0-1.12335887-.2940505-1.42784588-.817104-2.13771499-3.6881065-.73689459-9.5299104 1.90889932-11.7254877.69635638-.5774083 1.73323374-.4874111 2.31608313.200489.58465111.6879.49366531 1.7144037-.20179021 2.291812-1.558469 1.2920402-2.42688757 5.4479544-1.17020302 7.6141266.45132541.7796795.17926898 1.7732138-.60897402 2.2205271-.25764285.1461342-.53780693.215637-.81616932.215637" opacity=".8"/>
    </g>
  </g>
</svg>
