<svg height="1.70833in" viewBox="0 0 171.74965 122.99975" width="2.38541in" xmlns="http://www.w3.org/2000/svg"><path d="m137.24155 98.00239a3.92888 3.92888 0 0 1 -3.91737 3.91736h-96.08863a3.92887 3.92887 0 0 1 -3.91736-3.91736v-59.3902h103.92336z" fill="#fff" fill-rule="evenodd"/><path d="m33.04983 38.93645v-10.32434a3.92887 3.92887 0 0 1 3.91736-3.91736h96.08864a3.92888 3.92888 0 0 1 3.91736 3.91736v10.32436" fill="#f47852" fill-rule="evenodd"/><g fill="none" stroke-miterlimit="10"><path d="m137.24155 98.00239a3.92888 3.92888 0 0 1 -3.91737 3.91736h-96.08863a3.92887 3.92887 0 0 1 -3.91736-3.91736v-69.39028a3.92887 3.92887 0 0 1 3.91736-3.91736h96.08863a3.92888 3.92888 0 0 1 3.91737 3.91736z" stroke="#464d60"/><g stroke-linecap="round"><g stroke="#464d60"><path d="m48.87091 49.49048h2.05368"/><path d="m48.87091 63.08794h2.05368"/><path d="m48.87091 76.6854h2.05368"/><path d="m48.87091 90.28286h2.05368"/><path d="m66.28205 49.49048h2.05369"/><path d="m66.28205 63.08794h2.05369"/><path d="m66.28205 76.6854h2.05369"/><path d="m66.28205 90.28286h2.05369"/><path d="m83.9087 49.49048h2.05369"/><path d="m83.9087 76.6854h2.05369"/><path d="m83.9087 90.28286h2.05369"/><path d="m100.85016 49.49048h2.05369"/><path d="m100.85016 76.6854h2.05369"/><path d="m100.85016 90.28286h2.05369"/><path d="m118.90016 49.49048h2.05369"/><path d="m118.90016 76.6854h2.05369"/><path d="m118.90016 90.28286h2.05369"/></g><path d="m86.28325 63.08795h33.21545" stroke="#f47852" stroke-dasharray="0 4.42873" stroke-width="2"/><g stroke="#464d60"><path d="m61.74043 17.96824v13.84737"/><path d="m84.71378 17.96824v13.84737"/><path d="m107.16249 17.96824v13.84737"/></g></g><path d="m33.04983 38.93646h103.92336" stroke="#464d60"/></g></svg>