<svg height="1.70833in" viewBox="0 0 171.74965 122.99975" width="2.38541in" xmlns="http://www.w3.org/2000/svg"><g stroke-miterlimit="10"><path d="m66.30737 77.73755v13.94674a6.04064 6.04064 0 0 0 6.04063 6.04063h18.38369l6.04064 11.03424a2.01354 2.01354 0 0 0 3.54383 0l6.04064-11.03424h14.31632a6.04064 6.04064 0 0 0 6.04064-6.04063v-40.27093a6.04064 6.04064 0 0 0 -6.04064-6.04064h-13.806" fill="#f47852" stroke="#464d60"/><path d="m100.53766 17.18307h-52.35221a6.04064 6.04064 0 0 0 -6.04064 6.04064v14.45729l-11.13491 6.92658a2.021 2.021 0 0 0 .10068 3.48343l11.03423 6.04064v17.41717a6.04064 6.04064 0 0 0 6.04064 6.04064h52.35221a6.04063 6.04063 0 0 0 6.04063-6.04064v-48.32511a6.04064 6.04064 0 0 0 -6.04063-6.04064z" fill="#fff" stroke="#464e60"/><g fill="none" stroke="#f47852" stroke-linecap="round"><path d="m58.03269 36.83176h33.07634"/><path d="m58.03269 46.03591h33.07634"/><path d="m58.03269 55.24006h33.07634"/></g></g></svg>