<svg height="1.70833in" viewBox="0 0 171.74965 122.99975" width="2.38541in" xmlns="http://www.w3.org/2000/svg"><path d="m80.28117 15.85266a46.40616 46.40616 0 1 1 -46.40617 46.40616 46.40614 46.40614 0 0 1 46.40617-46.40616m0-1a47.40616 47.40616 0 1 0 47.40612 47.40616 47.45984 47.45984 0 0 0 -47.40612-47.40616z" fill="#464d60"/><path d="m90.303 68.58644a23.1438 23.1438 0 0 1 11.79512 5.75162c1.15559 1.071 1.91272 9.12327 1.91272 9.12327h-47.37967s-.0797-6.54495 1.91272-9.12327a28.69745 28.69745 0 0 1 12.95071-5.75162c6.0968-.91232 4.42317-7.65561 4.62241-7.53661.19924.07934-.03985-1.46765-.03985-1.46765s-3.78559-4.2443-3.70589-8.09194c.03984-3.84764 0-6.34662 0-6.34662s-.11955-9.12326 6.09679-9.12326l3.86529 1.70564c5.61862 0 6.01711 7.41761 6.01711 7.41761v6.902s-.23909 5.27562-3.74575 7.21928c0 0-.27894 1.547-.0797 1.46765.19925-.11904-.35863 6.94158 5.77799 7.8539z" fill="#f47852" fill-rule="evenodd"/><path d="m116.98444 100.50371a20.60913 20.60913 0 1 1 20.60889-20.60937 20.63245 20.63245 0 0 1 -20.60889 20.60937z" fill="#f47852" fill-rule="evenodd"/><path d="m116.9842 59.78524a20.10934 20.10934 0 1 1 -20.10926 20.10933 20.10937 20.10937 0 0 1 20.10926-20.10933m0-1a21.10934 21.10934 0 1 0 21.10937 21.10933 21.13322 21.13322 0 0 0 -21.10937-21.10933z" fill="#464d60"/><g fill="none" stroke="#fff" stroke-linecap="round" stroke-miterlimit="10"><path d="m117.98423 71.80663v16.83341"/><path d="m126.63534 80.34368h-16.83341"/></g></svg>