<svg xmlns="http://www.w3.org/2000/svg" width="2.38541in" height="1.70833in" viewBox="0 0 171.74965 122.99975"><path d="M100.77054,14.67518H70.58305a8.44792,8.44792,0,0,0-5.9736,2.47435L43.26367,38.49531a8.448,8.448,0,0,0-2.47435,5.9736V74.6564A8.448,8.448,0,0,0,43.26367,80.63l21.34578,21.34578a8.44792,8.44792,0,0,0,5.9736,2.47435h30.18749a8.448,8.448,0,0,0,5.97361-2.47435L128.08993,80.63a8.448,8.448,0,0,0,2.47435-5.97361V44.46891a8.448,8.448,0,0,0-2.47435-5.9736L106.74415,17.14953A8.448,8.448,0,0,0,100.77054,14.67518Z" fill="#fff" stroke="#464d60" stroke-linecap="round" stroke-linejoin="round"/><path d="M97.45849,23.71007H74.25371a8.32262,8.32262,0,0,0-5.885,2.43764L51.96047,42.556a8.3226,8.3226,0,0,0-2.43764,5.885V71.64574a8.32261,8.32261,0,0,0,2.43764,5.885L68.36873,93.939a8.32262,8.32262,0,0,0,5.885,2.43764H97.45849a8.32262,8.32262,0,0,0,5.885-2.43764l16.40826-16.40826a8.32261,8.32261,0,0,0,2.43764-5.885V48.441a8.3226,8.3226,0,0,0-2.43764-5.885L103.34347,26.14771A8.32262,8.32262,0,0,0,97.45849,23.71007Z" fill="#f47852" stroke="#464d60" stroke-linecap="round" stroke-linejoin="round"/><path d="M71.31931,39.35153H72.729l10.17383,14.5503L81.05124,52.124h.6626V39.35153h1.42041V54.53317H81.71384L71.54,39.99313l1.86231,1.76758H72.729V54.53317H71.31931Z" fill="#fff"/><path d="M90.09226,53.81784a6.30828,6.30828,0,0,1-2.38818-2.71435,9.52564,9.52564,0,0,1-.8418-4.15577v-.021a9.444,9.444,0,0,1,.84717-4.15088,6.34962,6.34962,0,0,1,2.39355-2.709,7.46782,7.46782,0,0,1,7.3169,0,6.33111,6.33111,0,0,1,2.3833,2.709,9.5,9.5,0,0,1,.84131,4.15088v.021a9.53286,9.53286,0,0,1-.84131,4.15577,6.33726,6.33726,0,0,1-2.37793,2.71435,7.49858,7.49858,0,0,1-7.333,0Zm6.55957-1.17334a5.22876,5.22876,0,0,0,1.87842-2.26709,8.24175,8.24175,0,0,0,.6626-3.42969v-.021a8.20873,8.20873,0,0,0-.668-3.4458,5.21191,5.21191,0,0,0-9.54248-.00537,8.19392,8.19392,0,0,0-.668,3.45117v.021a8.21,8.21,0,0,0,.668,3.44043,5.00142,5.00142,0,0,0,4.78173,3.06153A5.10784,5.10784,0,0,0,96.65183,52.6445Z" fill="#fff"/><path d="M70.07566,59.35153h1.0625v1.74658H70.77L65.86716,74.53317H64.35251Zm-2.75635,9.29h6.92285l.47315,1.231H66.84568Zm3.48242-7.54346V59.35153h.69434l5.70215,15.18164h-1.5044Z" fill="#fff"/><path d="M80.37937,59.35153H85.3032a7.85855,7.85855,0,0,1,3.87695.89405A5.98144,5.98144,0,0,1,91.64206,62.834a8.98266,8.98266,0,0,1,.85743,4.09278v.021a9.05186,9.05186,0,0,1-.85254,4.09766,5.9314,5.9314,0,0,1-2.46143,2.59375,7.88386,7.88386,0,0,1-3.88232.894H80.37937Zm4.8291,13.8877a6.37038,6.37038,0,0,0,3.17725-.73145A4.76156,4.76156,0,0,0,90.35837,70.372a7.79188,7.79188,0,0,0,.67871-3.41406v-.021a7.855,7.855,0,0,0-.67871-3.42969,4.727,4.727,0,0,0-1.97265-2.13574,6.41233,6.41233,0,0,0-3.17725-.72607H81.81V73.23923Z" fill="#fff"/><path d="M98.2739,74.25974a4.65,4.65,0,0,1-1.94629-1.46241,4.07948,4.07948,0,0,1-.81543-2.22021l-.01025-.147h1.43066l.021.147a2.82245,2.82245,0,0,0,.65234,1.52051,3.5301,3.5301,0,0,0,1.4624.99951,5.86358,5.86358,0,0,0,2.11475.35254,5.53809,5.53809,0,0,0,2.06738-.35254,3.08741,3.08741,0,0,0,1.36768-1.01026,2.49286,2.49286,0,0,0,.48926-1.53076v-.01025a2.24582,2.24582,0,0,0-.76807-1.7832,5.902,5.902,0,0,0-2.5249-1.06788l-1.6626-.36865A6.90025,6.90025,0,0,1,96.917,65.83786a3.4234,3.4234,0,0,1-1.03662-2.604v-.01075a3.62985,3.62985,0,0,1,.67333-2.13574,4.42779,4.42779,0,0,1,1.83057-1.45166,6.42042,6.42042,0,0,1,2.66211-.52636,6.16812,6.16812,0,0,1,2.61963.53125,4.65019,4.65019,0,0,1,1.83594,1.47314,4.10173,4.10173,0,0,1,.77295,2.19385l.01074.147H104.855l-.01074-.13672a3.09678,3.09678,0,0,0-.61523-1.53613,3.27928,3.27928,0,0,0-1.32031-.99414,4.76738,4.76738,0,0,0-1.89405-.35254,4.96419,4.96419,0,0,0-1.92529.34717,2.99806,2.99806,0,0,0-1.28857.96289,2.34062,2.34062,0,0,0-.458,1.436v.021a2.17454,2.17454,0,0,0,.76806,1.72021,5.62209,5.62209,0,0,0,2.41993,1.04688l1.66211.36816a7.15605,7.15605,0,0,1,3.3457,1.49414,3.47887,3.47887,0,0,1,1.02051,2.65088v.01074a3.87658,3.87658,0,0,1-.668,2.26709,4.29623,4.29623,0,0,1-1.89356,1.48877,8.12054,8.12054,0,0,1-5.72363.01075Z" fill="#fff"/></svg>