<svg height="1.70833in" viewBox="0 0 171.74965 122.99975" width="2.38541in" xmlns="http://www.w3.org/2000/svg"><path d="m95.57447 94.179 6.17921 12.97271c.95516 2.09513.39655 3.28347-2.78221 3.28347h-31.79747c-3.17876 0-3.73736-1.18834-2.78221-3.28347l6.17926-12.97271" fill="#f47852"/><g stroke-miterlimit="10"><g stroke="#464d60"><path d="m95.521 18.21312h-60.59536a7.13969 7.13969 0 0 0 -7.1188 7.1188v61.72826a7.13969 7.13969 0 0 0 7.1188 7.1188h96.29424a7.13968 7.13968 0 0 0 7.1188-7.1188v-61.72826a7.13968 7.13968 0 0 0 -7.1188-7.1188h-36.86988" fill="#fff"/><g fill="none"><path d="m95.57447 94.179 6.17921 12.97271c.95516 2.09513.39655 3.28347-2.78221 3.28347h-31.79747c-3.17876 0-3.73736-1.18834-2.78221-3.28347l6.17926-12.97271"/><g stroke-linecap="round"><path d="m117.06009 61.09268c.60824-.91815-1.53605 6.78182-12.85108 16.51389-7.33601 6.30972-11.66765 16.57243-11.66765 16.57243"/><path d="m101.592 48.08474c.68982-1.79684 9.57185 15.295-2.2695 25.88771-6.78114 6.06609-9.09158 16.81055-6.17231 20.20655"/></g></g><g fill="#f47852"><path d="m27.807 38.965v4.715l3.222 5.479 2.654-10.958"/><path d="m37.451 38.126 5.698 10.173 2.756-11.382"/><path d="m48.942 36.554 7.133 9.52 1.183-11.213"/><path d="m63.34 33.137 6.761 9.024 1.268-12.016"/><path d="m75.72 28.443 8.064 8.976.207-12.724"/><path d="m88.041 22.595 8.181 7.982-.631-12.71"/></g><path d="m27.80683 38.96456q38.46858-2.25956 67.71417-20.75146" fill="none"/><ellipse cx="105.45613" cy="30.57694" fill="#f47852" rx="19.57949" ry="18.07338" transform="matrix(.20750417 -.97823413 .97823413 .20750417 53.66213 127.39288)"/></g><path d="m95.74793 17.46527a17.79832 17.79832 0 0 0 -4.5731 21.55891" fill="none" stroke="#fff" stroke-linecap="round"/><ellipse cx="126.52475" cy="49.70214" fill="#f47852" rx="16.38322" ry="15.12297" stroke="#464d60" transform="matrix(.59706722 -.80219121 .80219121 .59706722 11.11035 121.52366)"/><path d="m124.48569 36.6904a14.89282 14.89282 0 0 0 -11.01045 14.79312" fill="none" stroke="#fff" stroke-linecap="round"/><path d="m83.99073 67.8745s5.39939 3.87184 3.07258 13.8533c-1.82674 7.83628 1.433 10.52953 5.478 12.45118" fill="none" stroke="#464d60" stroke-linecap="round"/><ellipse cx="81.72046" cy="60.72055" fill="#f47852" rx="10.17726" ry="11.70387" stroke="#464d60" transform="matrix(.94856661 -.31657763 .31657763 .94856661 -15.01961 28.99393)"/><path d="m73.63173 56.476a11.15738 11.15738 0 0 0 4.17054 12.49625" fill="none" stroke="#fff" stroke-linecap="round"/><g fill="#f47852" stroke="#464d60"><path d="m88.998 73.281-2.834-1.535-1.607 2.81z"/><path d="m106.515 52.4-2.433-2.113-2.179 2.393z"/><path d="m117.532 66.21-.883-3.099-3.133.815z"/></g><g fill="none" stroke="#f47852" stroke-linecap="round"><path d="m52.90841 60.16249 2.77466 1.33739"/><path d="m127.45208 71.68772-1.42477 2.73082"/><path d="m76.20689 39.60776 1.06482 2.89024"/><path d="m128.15979 9.0964-2.84018 1.19194"/><path d="m54.18878 23.60602-2.178 2.17799"/><path d="m78.11788 8.39305 1.6536 2.59864"/><path d="m147.08749 30.80423 2.37636 1.95966"/><path d="m147.32769 56.23069 3.07153-.23031"/></g></g></svg>