<svg height="122.9998" viewBox="0 0 171.7497 122.9998" width="171.7497" xmlns="http://www.w3.org/2000/svg"><g fill="none" stroke="#464d60" stroke-linecap="round" stroke-miterlimit="10"><path d="m86.21029 57.32376 1.41797-.48889"/><path d="m90.26742 55.92508 19.79151-6.82343" stroke-dasharray="2.7913 2.7913"/><path d="m111.37826 48.64676 1.41797-.4889"/><path d="m112.79623 72.42388-1.41797-.48892"/><path d="m108.7391 71.02517-19.7915-6.8234" stroke-dasharray="2.7913 2.7913"/><path d="m87.62826 63.74688-1.41797-.48893"/></g><circle cx="48.21028" cy="60.38571" fill="#fff" r="38.5"/><path d="m48.21028 22.38565a38 38 0 1 1 -38 38 38 38 0 0 1 38-38m0-1a39 39 0 1 0 39 39 39.04417 39.04417 0 0 0 -39-39z" fill="#464d60"/><path d="m56.41674 65.567a18.9513 18.9513 0 0 1 9.65851 4.70976c.94627.877 1.56624 7.47065 1.56624 7.47065h-38.79719s-.06526-5.35938 1.56625-7.47065a23.49893 23.49893 0 0 1 10.60478-4.70976c4.9924-.74706 3.62194-6.26885 3.78509-6.1714.16315.065-.03263-1.2018-.03263-1.2018s-3.09986-3.47547-3.03459-6.62614c.03262-3.15067 0-5.197 0-5.197s-.0979-7.47065 4.99239-7.47065l3.16512 1.39669c4.60085 0 4.92716 6.074 4.92716 6.074v5.65171s-.19579 4.32-3.06724 5.91155c0 0-.22841 1.26676-.06526 1.2018.16316-.09741-.29367 5.68424 4.73137 6.43124z" fill="#f47852" fill-rule="evenodd"/><path d="m129.61067 58.20846a18.12378 18.12378 0 1 1 18.124-18.124 18.1441 18.1441 0 0 1 -18.124 18.124z" fill="#fff" fill-rule="evenodd"/><path d="m129.61079 22.38565a17.69895 17.69895 0 1 1 -17.699 17.69891 17.69893 17.69893 0 0 1 17.699-17.69891m0-.85a18.54892 18.54892 0 1 0 18.54895 18.54889 18.56994 18.56994 0 0 0 -18.54895-18.54889z" fill="#464d60"/><path d="m133.43306 42.49789a8.82684 8.82684 0 0 1 4.49857 2.19363c.44074.40846.7295 3.47954.7295 3.47954h-18.07026s-.0304-2.49619.72949-3.47954a10.945 10.945 0 0 1 4.93931-2.19363c2.32527-.34795 1.687-2.91979 1.76295-2.87441.076.03026-.0152-.55975-.0152-.55975a5.64258 5.64258 0 0 1 -1.41339-3.0862c.01519-1.46746 0-2.42056 0-2.42056s-.0456-3.47954 2.32527-3.47954l1.47419.65052c2.1429 0 2.29488 2.829 2.29488 2.829v2.63236s-.09119 2.01208-1.4286 2.75338c0 0-.10639.59-.0304.55975.07599-.04537-.13678 2.6475 2.20369 2.99545z" fill="#f47852" fill-rule="evenodd"/><path d="m152.17219 51.85739a10.96094 10.96094 0 1 1 10.96094-10.96094 10.97368 10.97368 0 0 1 -10.96094 10.96094z" fill="#f47852" fill-rule="evenodd"/><path d="m152.172 30.38571a10.51084 10.51084 0 1 1 -10.51074 10.5108 10.51077 10.51077 0 0 1 10.51074-10.5108m0-.9a11.41086 11.41086 0 1 0 11.41089 11.41082 11.42376 11.42376 0 0 0 -11.41089-11.41084z" fill="#464d60"/><path d="m156.53229 37.9576-6.22152 6.22152" fill="none" stroke="#fff" stroke-linecap="round" stroke-miterlimit="10"/><path d="m150.33363 44.24202-2.51453-2.16129" fill="none" stroke="#fff" stroke-linecap="round" stroke-miterlimit="10"/><path d="m129.61067 98.81051a18.12378 18.12378 0 1 1 18.124-18.124 18.1441 18.1441 0 0 1 -18.124 18.124z" fill="#fff" fill-rule="evenodd"/><path d="m129.61079 62.9877a17.699 17.699 0 1 1 -17.699 17.699 17.69894 17.69894 0 0 1 17.699-17.699m0-.85a18.54895 18.54895 0 1 0 18.54895 18.549 18.57 18.57 0 0 0 -18.54895-18.549z" fill="#464d60"/><path d="m133.43306 83.1a8.82685 8.82685 0 0 1 4.49857 2.19362c.44074.40847.7295 3.47955.7295 3.47955h-18.07026s-.0304-2.4962.72949-3.47955a10.945 10.945 0 0 1 4.93931-2.19362c2.32527-.34795 1.687-2.91979 1.76295-2.87441.076.03026-.0152-.55975-.0152-.55975a5.64258 5.64258 0 0 1 -1.41339-3.0862c.01519-1.46747 0-2.42056 0-2.42056s-.0456-3.47954 2.32527-3.47954l1.47419.65052c2.1429 0 2.29488 2.829 2.29488 2.829v2.63234s-.09119 2.01209-1.4286 2.75338c0 0-.10639.59-.0304.55975.07599-.04538-.13678 2.64747 2.20369 2.99547z" fill="#f47852" fill-rule="evenodd"/><path d="m152.17219 92.834a10.96094 10.96094 0 1 1 10.96094-10.961 10.97368 10.97368 0 0 1 -10.96094 10.961z" fill="#f47852" fill-rule="evenodd"/><path d="m152.172 71.36221a10.51084 10.51084 0 1 1 -10.51074 10.51087 10.51082 10.51082 0 0 1 10.51074-10.51087m0-.9a11.41086 11.41086 0 1 0 11.41089 11.41089 11.42378 11.42378 0 0 0 -11.41089-11.41091z" fill="#464d60"/><g fill="none" stroke="#fff" stroke-linecap="round" stroke-miterlimit="10"><path d="m156.53229 78.93415-6.22152 6.22152"/><path d="m150.33363 85.21858-2.51453-2.16129"/></g></svg>