<svg height="529" viewBox="0 0 856 529" width="856" xmlns="http://www.w3.org/2000/svg"><g fill="none" fill-rule="evenodd"><path d="m848 30.5c1.794925 0 3.419925.7275373 4.596194 1.9038059 1.176269 1.1762687 1.903806 2.8012687 1.903806 4.5961941v490.5h-853v-490.5c0-1.7949254.72753728-3.4199254 1.90380592-4.5961941 1.17626864-1.1762686 2.80126864-1.9038059 4.59619408-1.9038059z" stroke="#fff" stroke-width="3" transform="matrix(1 0 0 -1 0 558)"/><path d="m8 0h840c4.418278 0 8 3.581722 8 8v22h-856v-22c0-4.418278 3.581722-8 8-8z" fill="#fff"/><g fill="#020202" opacity=".5"><circle cx="19.5" cy="16.5" opacity=".2" r="3.5"/><circle cx="34.5" cy="16.5" opacity=".2" r="3.5"/><circle cx="49.5" cy="16.5" opacity=".2" r="3.5"/></g></g></svg>