<svg fill="none" height="45" viewBox="0 0 113 45" width="113" xmlns="http://www.w3.org/2000/svg"><g clip-rule="evenodd" fill-rule="evenodd"><path d="m59.5071 22.0939c-1.3441.2986-2.5152-.8755-2.2173-2.2232.1505-.6789.6966-1.2269 1.3742-1.3773 1.3441-.2987 2.5147.8755 2.2168 2.2231-.1495.6789-.6966 1.2269-1.3737 1.3774zm-.1305-13.47232h-1.1777-9.7207-1.3114c-.007 0-.0132.00577-.0132.01331v34.40501c0 .0071.0062.0133.0132.0133h1.3202c5.3711 0 9.7252-4.3655 9.7252-9.7512v-1.337h1.1644c6.4289 0 11.6411-5.2255 11.6411-11.6717s-5.2122-11.67172-11.6411-11.67172z" fill="#fefefe"/><g fill="#f37852"><path d="m26.8896 22.8525c-11.0869.1241-15.6909 4.6752-15.6909 4.6752-.8903.653-2.0228 1.0987-3.27726 1.1469-3.0084.044-5.54403-2.4321-5.60779-5.4532s2.3829-5.5513 5.39131-5.5952c1.25446-.0483 2.32174.369 3.32134 1.0622 0 0 4.8036 4.3413 15.8666 4.1386z"/><path d="m86.0834 22.5956c11.0578.3959 15.9366-3.8608 15.9366-3.8608 1.012-.6766 2.086-1.0743 3.34-1.005 3.006.096 5.409 2.6699 5.293 5.6886-.117 3.0204-2.696 5.4504-5.702 5.3545-1.254-.0693-2.379-.5347-3.259-1.2036 0 0-4.5227-4.6304-15.6066-4.9486z"/><path d="m30.2193 31.6939c-5.6994 4.7776-6.2231 9.0981-6.2231 9.0981-.2014.7932-.5589 1.475-1.2162 2.0046-1.5443 1.3047-3.9002 1.1011-5.1987-.459-1.2986-1.5608-1.1027-3.9345.4416-5.2393.6573-.5296 1.4281-.8025 2.1678-.8642 0 0 4.3389.2769 10.0157-4.551z"/><path d="m82.1845 31.6829c5.6775 4.8281 10.0164 4.5511 10.0164 4.5511.7397.0617 1.5104.3354 2.1678.8643 1.5442 1.3047 1.74 3.6791.4416 5.2392-1.2985 1.5602-3.6544 1.7638-5.1987.459-.6574-.5289-1.0148-1.2113-1.2164-2.0039 0 0-.5235-4.3212-6.2229-9.0988z"/><path d="m30.2193 13.2446c-5.6994-4.77759-6.2231-9.09814-6.2231-9.09814-.2014-.79323-.5589-1.47499-1.2162-2.00457-1.5443-1.304757-3.9002-1.10112-5.1987.45902-1.2986 1.56081-1.1027 3.93449.4416 5.23925.6573.52958 1.4281.80253 2.1678.86424 0 0 4.3389-.27697 10.0157 4.551z"/><path d="m82.1845 13.2556c5.6775-4.82813 10.0164-4.55116 10.0164-4.55116.7397-.06171 1.5104-.33533 2.1678-.86424 1.5442-1.30476 1.74-3.67911.4416-5.23925-1.2985-1.56014-3.6544-1.763776-5.1987-.45902-.6574.52891-1.0148 1.21134-1.2164 2.0039 0 0-.5235 4.32122-6.2229 9.09877z"/></g></g></svg>