<svg height="27" viewBox="0 0 27 27" width="27" xmlns="http://www.w3.org/2000/svg" xmlns:xlink="http://www.w3.org/1999/xlink"><mask id="a" fill="#fff"><path d="m0 0h20.124v20.909h-20.124z" fill="#fff" fill-rule="evenodd"/></mask><path d="m6.72786354 6.44557365c.57256166-.11716611.89519001-.30130165 1.03048178-.80621742l2.95343658-5.97321773 3.0039877 5.94600346c.1873365.32078023.6246064.70852989.8745397.77549932l6.5143849.93377351-4.7676375 4.67535341c-.3226283.1841356-.4579201.6890513-.3382294 1.2622895l1.2186567 6.5499596-5.9055718-3.2058945c-.5049158-.1352917-.7573737-.2029376-1.0749528-.0174492l-5.69674666 3.0734817.93377351-6.5143848c.13529178-.5049158-.04699564-.8243431-.48679011-1.2127692l-4.74232286-4.51770418z" fill="#f87851" fill-rule="evenodd" mask="url(#a)" transform="matrix(1.00000001 0 0 1.00000001 2.954077 2.959558)"/></svg>